<svg xmlns="http://www.w3.org/2000/svg" viewBox="0 0 1600 1000" preserveAspectRatio="xMidYMid slice">
  <defs>
    <radialGradient id="glow" cx="50%" cy="46%" r="62%">
      <stop offset="0" stop-color="#34502a"/>
      <stop offset=".55" stop-color="#253a1c"/>
      <stop offset="1" stop-color="#1a2914"/>
    </radialGradient>
    <g id="leaf">
      <path d="M0 0C0-62 42-108 114-112C114-46 68 0 0 0Z"/>
      <path d="M0 0C30-28 62-62 104-104" fill="none" stroke="#1e2f17" stroke-width="3" stroke-linecap="round" opacity=".55"/>
    </g>
    <g id="frond" fill="none" stroke-linecap="round">
      <path d="M0 0C10-90 40-170 96-240" stroke-width="3"/>
      <path d="M6-40l-30-14M6-40l26-22M14-80l-30-18M14-80l26-24M28-120l-28-20M28-120l24-26M46-158l-24-20M46-158l20-26M66-194l-18-18M66-194l16-22" stroke-width="2.4"/>
    </g>
  </defs>
  <rect width="1600" height="1000" fill="url(#glow)"/>
  <g fill="#c6dc93" opacity=".09">
    <use href="#leaf" transform="translate(110 940) rotate(-12) scale(2.1)"/>
    <use href="#leaf" transform="translate(300 990) rotate(30) scale(1.25)"/>
    <use href="#leaf" transform="translate(40 720) rotate(-44) scale(1.1)"/>
    <use href="#leaf" transform="translate(1500 260) rotate(176) scale(1.8)"/>
    <use href="#leaf" transform="translate(1610 110) rotate(142) scale(1.2)"/>
    <use href="#leaf" transform="translate(1360 40) rotate(208) scale(.95)"/>
  </g>
  <g stroke="#c6dc93" opacity=".12">
    <use href="#frond" transform="translate(1390 1010) rotate(-14) scale(1.5)"/>
    <use href="#frond" transform="translate(150 20) rotate(160) scale(1.1)"/>
  </g>
</svg>
